<svg width="16" height="17" fill="none" xmlns="http://www.w3.org/2000/svg"><path d="M0 8.037c0 4.394 3.619 8.024 8 8.024s8-3.63 8-8.024C16 3.643 12.381.06 8 .06S0 3.643 0 8.037Zm10.952 3.725c-1.857-1.146-4.238-1.433-7-.812-.666.096-.762-.86-.19-.955 3.048-.716 5.619-.382 7.714.908.524.334 0 1.146-.524.86Zm.81-2.15C9.619 8.277 6.333 7.895 3.81 8.659c-.81.238-1.096-1.003-.334-1.194 2.905-.86 6.476-.43 8.953 1.098.666.43 0 1.48-.667 1.05Zm-8.333-3.39c-.81.286-1.334-1.099-.429-1.433 2.81-.86 7.571-.716 10.524 1.05.81.43.047 1.768-.81 1.29-2.571-1.528-6.857-1.671-9.285-.907Z" fill="currentColor"/></svg>